<svg xmlns="http://www.w3.org/2000/svg" viewBox="0 0 200 200" fill="none">
  <defs>
    <linearGradient id="gradPurple1" x1="0%" y1="0%" x2="100%" y2="100%">
      <stop offset="0%" stop-color="#B28CFF" stop-opacity="0.15" />
      <stop offset="100%" stop-color="#7B3FE4" stop-opacity="0.02" />
    </linearGradient>
    <linearGradient id="gradPurple2" x1="0%" y1="0%" x2="100%" y2="0%">
      <stop offset="0%" stop-color="#B28CFF" stop-opacity="0.8" />
      <stop offset="100%" stop-color="#7B3FE4" stop-opacity="0.8" />
    </linearGradient>
  </defs>
  <circle cx="100" cy="100" r="80" fill="url(#gradPurple1)" />
  <path d="M60 70 C60 60 75 60 95 65 C115 60 130 60 130 70 V140 C130 130 115 130 95 135 C75 130 60 130 60 140 Z" stroke="url(#gradPurple2)" stroke-width="2.5" fill="none" opacity="0.4" />
  <line x1="95" y1="65" x2="95" y2="135" stroke="url(#gradPurple2)" stroke-width="2.5" opacity="0.4" />
  <path d="M70 85 H85 M70 100 H85 M70 115 H85 M105 85 H120 M105 100 H120 M105 115 H120" stroke="url(#gradPurple2)" stroke-width="2" stroke-linecap="round" opacity="0.7" />
  <path d="M110 50 V80 L117 73 L124 80 V50 Z" fill="url(#gradPurple2)" opacity="0.75" />
</svg>
