<svg xmlns="http://www.w3.org/2000/svg" viewBox="0 0 200 200" fill="none">
  <defs>
    <linearGradient id="gradTeal1" x1="0%" y1="0%" x2="100%" y2="100%">
      <stop offset="0%" stop-color="#3CD8EC" stop-opacity="0.15" />
      <stop offset="100%" stop-color="#009FB7" stop-opacity="0.02" />
    </linearGradient>
    <linearGradient id="gradTeal2" x1="0%" y1="0%" x2="100%" y2="0%">
      <stop offset="0%" stop-color="#3CD8EC" stop-opacity="0.8" />
      <stop offset="100%" stop-color="#009FB7" stop-opacity="0.8" />
    </linearGradient>
  </defs>
  <circle cx="100" cy="100" r="80" fill="url(#gradTeal1)" />
  <circle cx="100" cy="100" r="45" stroke="url(#gradTeal2)" stroke-width="2.5" stroke-dasharray="6 4" fill="none" opacity="0.4" />
  <path d="M100 65 L108 92 L135 100 L108 108 L100 135 L92 108 L65 100 L92 92 Z" fill="url(#gradTeal2)" opacity="0.85" />
  <circle cx="100" cy="100" r="5" fill="#FFFFFF" />
  <path d="M60 50L63 56L69 53L64 58L68 64L62 62L58 67L58 60L52 59L57 56Z" fill="url(#gradTeal2)" opacity="0.3" />
  <path d="M140 140L142 144L146 142L143 146L146 150L141 149L139 152L139 147L135 146L138 144Z" fill="url(#gradTeal2)" opacity="0.4" />
</svg>
